<svg width="512" height="512" viewBox="0 0 512 512" fill="none" xmlns="http://www.w3.org/2000/svg">
    <rect width="512" height="512" rx="100" fill="#495CEF" />
    <path d="M334.295 308.899L359.347 332.061C348.633 345.926 335.083 356.956 318.696 365.149C302.625 373.027 284.348 376.966 263.865 376.966C240.231 376.966 219.118 371.609 200.525 360.895C182.248 350.181 167.753 335.527 157.038 316.935C146.639 298.343 141.44 277.072 141.44 253.123C141.44 229.174 146.639 207.903 157.038 189.311C167.753 170.718 182.406 156.065 200.998 145.351C219.59 134.637 240.703 129.28 264.338 129.28C284.821 129.28 303.098 133.376 319.169 141.57C335.24 149.448 348.633 160.319 359.347 174.185L334.295 197.346C326.732 186.002 317.278 177.021 305.934 170.403C294.589 163.471 280.724 160.004 264.338 160.004C247.321 160.004 232.353 163.943 219.433 171.821C206.513 179.699 196.429 190.729 189.181 204.909C181.933 218.775 178.309 234.846 178.309 253.123C178.309 271.4 181.933 287.629 189.181 301.809C196.429 315.675 206.513 326.546 219.433 334.424C232.353 342.302 247.321 346.241 264.338 346.241C280.724 346.241 294.589 342.933 305.934 336.315C317.278 329.382 326.732 320.244 334.295 308.899Z" fill="white" />
</svg>